<svg width="800" height="450" viewBox="0 0 800 450" fill="none" xmlns="http://www.w3.org/2000/svg">
  <!-- Background -->
  <rect width="800" height="450" fill="#f8fafc"/>
  
  <!-- Car Body -->
  <path d="M150 280 L650 280 L650 310 L620 310 L620 350 L580 350 L580 310 L220 310 L220 350 L180 350 L180 310 L150 310 Z" fill="#7c3aed"/>
  
  <!-- Car Roof (SUV style) -->
  <path d="M200 280 L600 280 L600 220 L580 220 L580 200 L220 200 L220 220 L200 220 Z" fill="#6d28d9"/>
  
  <!-- Windshield -->
  <path d="M220 220 L580 220 L580 200 L220 200 Z" fill="#ede9fe" opacity="0.8"/>
  
  <!-- Windows -->
  <rect x="240" y="220" width="80" height="60" fill="#ede9fe" opacity="0.6"/>
  <rect x="480" y="220" width="80" height="60" fill="#ede9fe" opacity="0.6"/>
  
  <!-- Wheels (Larger for SUV) -->
  <circle cx="200" cy="350" r="30" fill="#374151"/>
  <circle cx="600" cy="350" r="30" fill="#374151"/>
  <circle cx="200" cy="350" r="22" fill="#6b7280"/>
  <circle cx="600" cy="350" r="22" fill="#6b7280"/>
  
  <!-- Wheel Details -->
  <circle cx="200" cy="350" r="15" fill="#9ca3af"/>
  <circle cx="600" cy="350" r="15" fill="#9ca3af"/>
  <circle cx="200" cy="350" r="8" fill="#d1d5db"/>
  <circle cx="600" cy="350" r="8" fill="#d1d5db"/>
  
  <!-- Headlights -->
  <circle cx="150" cy="270" r="10" fill="#fbbf24"/>
  <circle cx="150" cy="270" r="6" fill="#fef3c7"/>
  
  <!-- Taillights -->
  <circle cx="650" cy="270" r="10" fill="#ef4444"/>
  <circle cx="650" cy="270" r="6" fill="#fecaca"/>
  
  <!-- Door Handles -->
  <rect x="300" y="290" width="15" height="3" fill="#1f2937" rx="1.5"/>
  <rect x="485" y="290" width="15" height="3" fill="#1f2937" rx="1.5"/>
  
  <!-- Grille -->
  <rect x="160" y="250" width="40" height="20" fill="#1f2937" rx="2"/>
  <line x1="170" y1="250" x2="170" y2="270" stroke="#4b5563" stroke-width="1"/>
  <line x1="180" y1="250" x2="180" y2="270" stroke="#4b5563" stroke-width="1"/>
  <line x1="190" y1="250" x2="190" y2="270" stroke="#4b5563" stroke-width="1"/>
  
  <!-- Roof Rails -->
  <rect x="220" y="200" width="360" height="3" fill="#1f2937"/>
  <rect x="220" y="195" width="3" height="10" fill="#1f2937"/>
  <rect x="577" y="195" width="3" height="10" fill="#1f2937"/>
  
  <!-- Side Steps -->
  <rect x="200" y="320" width="400" height="8" fill="#1f2937" rx="4"/>
</svg>
